<svg width="12" height="16" viewBox="0 0 12 16" fill="none" xmlns="http://www.w3.org/2000/svg">
<path d="M2.95898 10.6934C2.69531 10.4297 2.8125 10.5176 2.22656 10.3418C1.93359 10.2832 1.69922 10.1367 1.46484 9.96094L0.146484 13.2129C0 13.5352 0.263672 13.8867 0.585938 13.8574L2.13867 13.7988L3.19336 14.9121C3.42773 15.1758 3.83789 15.0879 3.95508 14.7949L5.50781 11.0449C5.18555 11.2207 4.83398 11.3086 4.45312 11.3086C3.89648 11.3086 3.33984 11.1035 2.95898 10.6934ZM11.3086 13.2129L9.99023 9.96094C9.75586 10.1367 9.52148 10.2832 9.25781 10.3418C8.61328 10.5176 8.75977 10.4297 8.49609 10.6934C8.11523 11.1035 7.55859 11.3086 7.00195 11.3086C6.62109 11.3086 6.26953 11.2207 5.94727 11.0449L7.5 14.7949C7.61719 15.0879 8.02734 15.1758 8.26172 14.9121L9.31641 13.7988L10.8691 13.8574C11.1914 13.8867 11.4551 13.5352 11.3086 13.2129ZM7.82227 10.0195C8.26172 9.58008 8.32031 9.60938 8.93555 9.43359C9.3457 9.3457 9.66797 9.02344 9.78516 8.58398C9.99023 7.76367 9.93164 7.85156 10.5469 7.26562C10.8398 6.94336 10.957 6.50391 10.8398 6.09375C10.6348 5.27344 10.6348 5.39062 10.8398 4.54102C10.957 4.13086 10.8398 3.69141 10.5469 3.39844C9.93164 2.7832 9.99023 2.87109 9.78516 2.05078C9.66797 1.64062 9.3457 1.31836 8.93555 1.20117C8.11523 0.966797 8.23242 1.02539 7.61719 0.410156C7.32422 0.117188 6.88477 0 6.47461 0.117188C5.68359 0.322266 5.77148 0.322266 4.98047 0.117188C4.57031 0 4.13086 0.117188 3.83789 0.410156C3.22266 1.02539 3.33984 0.966797 2.51953 1.20117C2.10938 1.31836 1.78711 1.64062 1.66992 2.05078C1.46484 2.87109 1.52344 2.7832 0.908203 3.39844C0.615234 3.69141 0.498047 4.13086 0.615234 4.54102C0.820312 5.39062 0.820312 5.27344 0.615234 6.09375C0.498047 6.50391 0.615234 6.94336 0.908203 7.26562C1.52344 7.85156 1.46484 7.76367 1.66992 8.58398C1.78711 9.02344 2.10938 9.3457 2.51953 9.43359C3.16406 9.60938 3.22266 9.58008 3.66211 10.0195C4.04297 10.4297 4.62891 10.4883 5.09766 10.1953C5.27344 10.0781 5.50781 10.0195 5.71289 10.0195C5.94727 10.0195 6.18164 10.0781 6.35742 10.1953C6.82617 10.4883 7.41211 10.4297 7.82227 10.0195ZM2.95898 5.21484C2.95898 3.66211 4.18945 2.40234 5.74219 2.40234C7.26562 2.40234 8.49609 3.66211 8.49609 5.21484C8.49609 6.76758 7.26562 8.02734 5.74219 8.02734C4.18945 8.02734 2.95898 6.76758 2.95898 5.21484Z" fill="white"/>
</svg>
